<svg width="60" height="60" viewBox="0 0 60 60" fill="none" xmlns="http://www.w3.org/2000/svg">
<g id="arrow-right-circle_svgrepo.com" clip-path="url(#clip0_1_1162)">
<g id="Page-1">
<g id="Icon-Set">
<path id="arrow-right-circle" fill-rule="evenodd" clip-rule="evenodd" d="M30 56.25C15.5025 56.25 3.75 44.4938 3.75 30C3.75 15.5063 15.5025 3.75 30 3.75C44.4975 3.75 56.25 15.5063 56.25 30C56.25 44.4938 44.4975 56.25 30 56.25ZM30 0C13.4306 0 0 13.425 0 30C0 46.575 13.4306 60 30 60C46.5694 60 60 46.575 60 30C60 13.425 46.5694 0 30 0ZM42.2531 28.35L31.6481 17.7374C30.915 17.0062 29.7281 17.0062 28.9969 17.7374C28.2637 18.4874 28.2637 19.6688 28.9969 20.4L36.7237 28.125H16.875C15.8381 28.125 15 28.9688 15 30C15 31.0312 15.8381 31.875 16.875 31.875H36.7237L28.9969 39.6C28.2637 40.3312 28.2637 41.5313 28.9969 42.2626C29.7281 42.9938 30.915 42.9938 31.6481 42.2626L42.2531 31.65C42.7031 31.2 42.8438 30.5812 42.7407 30C42.8438 29.4188 42.7031 28.8 42.2531 28.35Z" fill="#E7090C"/>
</g>
</g>
</g>
<defs>
<clipPath id="clip0_1_1162">
<rect width="60" height="60" fill="white"/>
</clipPath>
</defs>
</svg>
