<svg width="72" height="43" viewBox="0 0 72 43" fill="none" xmlns="http://www.w3.org/2000/svg">
<g id="AWS" clip-path="url(#clip0_1_903)">
<g id="Group">
<path id="Vector" d="M20.7373 15.5922C20.7373 16.4671 20.831 17.1765 20.9948 17.6967C21.1821 18.2169 21.4162 18.7844 21.744 19.3992C21.861 19.5883 21.9078 19.7775 21.9078 19.943C21.9078 20.1795 21.7674 20.4159 21.463 20.6524L19.9882 21.6455C19.7775 21.7874 19.5668 21.8583 19.3796 21.8583C19.1455 21.8583 18.9114 21.7401 18.6773 21.5273C18.3495 21.1726 18.0686 20.7943 17.8345 20.4159C17.6004 20.014 17.3663 19.5647 17.1088 19.0208C15.2828 21.1963 12.9886 22.284 10.2262 22.284C8.25979 22.284 6.69132 21.7165 5.54423 20.5815C4.39714 19.4465 3.81189 17.9331 3.81189 16.0415C3.81189 14.0316 4.51419 12.4 5.9422 11.1704C7.37021 9.94085 9.26642 9.32606 11.6777 9.32606C12.4736 9.32606 13.2929 9.397 14.1591 9.51523C15.0253 9.63346 15.9149 9.82262 16.8513 10.0354V8.30929C16.8513 6.51221 16.4767 5.25898 15.751 4.52596C15.0019 3.79294 13.7377 3.43826 11.9352 3.43826C11.1158 3.43826 10.2731 3.53284 9.40688 3.74565C8.54071 3.95846 7.69795 4.21857 6.8786 4.54961C6.50404 4.71513 6.22312 4.80971 6.05925 4.857C5.89538 4.90429 5.77833 4.92794 5.68469 4.92794C5.35695 4.92794 5.19308 4.69148 5.19308 4.19492V3.03628C5.19308 2.65794 5.2399 2.37419 5.35695 2.20867C5.474 2.04315 5.68469 1.87763 6.01243 1.71211C6.83178 1.28649 7.815 0.931801 8.96209 0.648051C10.1092 0.340656 11.3265 0.198781 12.6141 0.198781C15.3998 0.198781 17.4365 0.837218 18.7475 2.11409C20.035 3.39096 20.6905 5.32992 20.6905 7.93096V15.5922H20.7373ZM11.2329 19.1864C12.0054 19.1864 12.8013 19.0445 13.6441 18.7607C14.4869 18.477 15.236 17.9568 15.8681 17.2474C16.2426 16.7981 16.5235 16.3016 16.664 15.7341C16.8045 15.1666 16.8981 14.4808 16.8981 13.6769V12.6838C16.2192 12.5182 15.4935 12.3764 14.7444 12.2818C13.9952 12.1872 13.2695 12.1399 12.5438 12.1399C10.9754 12.1399 9.82826 12.4473 9.05573 13.0857C8.2832 13.7242 7.90864 14.6227 7.90864 15.805C7.90864 16.9164 8.18956 17.744 8.77481 18.3115C9.33665 18.9026 10.156 19.1864 11.2329 19.1864ZM30.0311 21.7401C29.6097 21.7401 29.3288 21.6692 29.1415 21.5036C28.9543 21.3618 28.7904 21.0307 28.6499 20.5815L23.1486 2.30326C23.0081 1.83034 22.9379 1.52295 22.9379 1.35743C22.9379 0.979092 23.1252 0.76628 23.4997 0.76628H25.7939C26.2387 0.76628 26.543 0.837217 26.7069 1.00274C26.8942 1.14461 27.0346 1.47565 27.1751 1.92492L31.108 17.5784L34.7599 1.92492C34.877 1.45201 35.0174 1.14461 35.2047 1.00274C35.392 0.860863 35.7197 0.76628 36.1411 0.76628H38.0139C38.4587 0.76628 38.7631 0.837217 38.9503 1.00274C39.1376 1.14461 39.3015 1.47565 39.3951 1.92492L43.0939 17.7676L47.1438 1.92492C47.2843 1.45201 47.4482 1.14461 47.612 1.00274C47.7993 0.860863 48.1036 0.76628 48.525 0.76628H50.7022C51.0767 0.76628 51.2874 0.955446 51.2874 1.35743C51.2874 1.47565 51.264 1.59388 51.2406 1.73576C51.2172 1.87763 51.1704 2.0668 51.0767 2.3269L45.4349 20.6051C45.2944 21.078 45.1306 21.3854 44.9433 21.5273C44.756 21.6692 44.4517 21.7638 44.0537 21.7638H42.0405C41.5957 21.7638 41.2913 21.6928 41.1041 21.5273C40.9168 21.3618 40.7529 21.0544 40.6593 20.5815L37.0307 5.32992L33.4256 20.5578C33.3085 21.0307 33.1681 21.3381 32.9808 21.5036C32.7935 21.6692 32.4658 21.7401 32.0444 21.7401H30.0311ZM60.113 22.3785C58.8957 22.3785 57.6783 22.2367 56.5078 21.9529C55.3373 21.6692 54.4244 21.3618 53.8157 21.0071C53.4411 20.7943 53.1836 20.5578 53.09 20.345C52.9963 20.1322 52.9495 19.8957 52.9495 19.6829V18.477C52.9495 17.9804 53.1368 17.744 53.488 17.744C53.6284 17.744 53.7689 17.7676 53.9093 17.8149C54.0498 17.8622 54.2605 17.9568 54.4946 18.0514C55.2905 18.406 56.1567 18.6898 57.0697 18.879C58.0061 19.0681 58.9191 19.1627 59.8555 19.1627C61.3303 19.1627 62.4774 18.9026 63.2733 18.3824C64.0693 17.8622 64.4907 17.1055 64.4907 16.1361C64.4907 15.474 64.28 14.9301 63.8586 14.4808C63.4372 14.0316 62.6413 13.6296 61.4942 13.2513L58.0997 12.1872C56.3908 11.6433 55.1267 10.8394 54.3541 9.77533C53.5816 8.73491 53.1836 7.57627 53.1836 6.34669C53.1836 5.35357 53.3943 4.47867 53.8157 3.72201C54.2371 2.96534 54.7989 2.30326 55.5012 1.78305C56.2035 1.2392 56.9995 0.837218 57.9359 0.553468C58.8723 0.269718 59.8555 0.151489 60.8855 0.151489C61.4005 0.151489 61.939 0.175135 62.454 0.246072C62.9924 0.31701 63.484 0.411593 63.9756 0.506176C64.4438 0.624405 64.8886 0.742634 65.31 0.884509C65.7314 1.02638 66.0591 1.16826 66.2932 1.31013C66.621 1.4993 66.8551 1.68847 66.9955 1.90128C67.136 2.09044 67.2062 2.35055 67.2062 2.68159V3.79294C67.2062 4.2895 67.0189 4.54961 66.6678 4.54961C66.4805 4.54961 66.1762 4.45502 65.7782 4.26586C64.4438 3.65107 62.9456 3.34367 61.2835 3.34367C59.9491 3.34367 58.8957 3.55648 58.17 4.00575C57.4443 4.45502 57.0697 5.14075 57.0697 6.11023C57.0697 6.77231 57.3038 7.33981 57.772 7.78908C58.2402 8.23835 59.1064 8.68762 60.3471 9.0896L63.6713 10.1537C65.3568 10.6975 66.5742 11.4542 67.2999 12.4237C68.0256 13.3931 68.3767 14.5045 68.3767 15.7341C68.3767 16.7508 68.166 17.673 67.7681 18.477C67.3467 19.2809 66.7848 19.9903 66.0591 20.5578C65.3334 21.149 64.4673 21.5746 63.4606 21.882C62.4072 22.213 61.3069 22.3785 60.113 22.3785Z" fill="#4B4B4C"/>
<path id="Vector_2" d="M64.5375 33.8704C56.8356 39.6163 45.6456 42.6667 36.0241 42.6667C22.5399 42.6667 10.3901 37.6301 1.21338 29.2595C0.487665 28.5974 1.14315 27.6989 2.00932 28.2191C11.9352 34.0359 24.1786 37.5592 36.8434 37.5592C45.3881 37.5592 54.7755 35.7621 63.4138 32.0733C64.7014 31.4822 65.8016 32.9246 64.5375 33.8704ZM67.7447 30.1817C66.7614 28.9048 61.2367 29.5669 58.7318 29.8743C57.9827 29.9689 57.8656 29.3068 58.5445 28.8102C62.9456 25.689 70.1793 26.5875 71.0221 27.6279C71.8648 28.692 70.788 35.9985 66.6678 39.4981C66.0357 40.042 65.4271 39.7582 65.708 39.0488C66.6444 36.7079 68.7279 31.4349 67.7447 30.1817Z" fill="#4B4B4C"/>
</g>
</g>
<defs>
<clipPath id="clip0_1_903">
<rect width="70.3939" height="42.5152" fill="white" transform="translate(0.909058 0.151489)"/>
</clipPath>
</defs>
</svg>
