<svg width="71" height="43" viewBox="0 0 71 43" fill="none" xmlns="http://www.w3.org/2000/svg">
<g id="AWS" clip-path="url(#clip0_1_899)">
<g id="Group">
<path id="Vector" d="M20.2828 15.6831C20.2828 16.558 20.3765 17.2674 20.5403 17.7876C20.7276 18.3078 20.9617 18.8753 21.2895 19.4901C21.4065 19.6793 21.4533 19.8684 21.4533 20.034C21.4533 20.2704 21.3129 20.5069 21.0085 20.7433L19.5337 21.7365C19.323 21.8783 19.1123 21.9493 18.9251 21.9493C18.691 21.9493 18.4569 21.831 18.2227 21.6182C17.895 21.2635 17.6141 20.8852 17.38 20.5069C17.1459 20.1049 16.9118 19.6556 16.6543 19.1118C14.8283 21.2872 12.5341 22.3749 9.77173 22.3749C7.80529 22.3749 6.23682 21.8074 5.08973 20.6724C3.94264 19.5374 3.35739 18.0241 3.35739 16.1324C3.35739 14.1225 4.05969 12.491 5.4877 11.2614C6.91571 10.0318 8.81192 9.417 11.2232 9.417C12.0191 9.417 12.8384 9.48794 13.7046 9.60617C14.5708 9.7244 15.4604 9.91356 16.3968 10.1264V8.40023C16.3968 6.60315 16.0222 5.34992 15.2965 4.6169C14.5474 3.88388 13.2832 3.5292 11.4807 3.5292C10.6613 3.5292 9.81855 3.62378 8.95238 3.83659C8.08621 4.04941 7.24345 4.30951 6.4241 4.64055C6.04954 4.80607 5.76862 4.90065 5.60475 4.94795C5.44088 4.99524 5.32383 5.01888 5.23019 5.01888C4.90245 5.01888 4.73858 4.78243 4.73858 4.28586V3.12722C4.73858 2.74889 4.7854 2.46514 4.90245 2.29962C5.0195 2.1341 5.23019 1.96858 5.55793 1.80305C6.37728 1.37743 7.3605 1.02274 8.50759 0.738993C9.65468 0.431598 10.872 0.289723 12.1596 0.289723C14.9453 0.289723 16.982 0.92816 18.293 2.20503C19.5805 3.48191 20.236 5.42086 20.236 8.0219V15.6831H20.2828ZM10.7784 19.2773C11.5509 19.2773 12.3468 19.1354 13.1896 18.8517C14.0324 18.5679 14.7815 18.0477 15.4135 17.3383C15.7881 16.8891 16.069 16.3925 16.2095 15.825C16.3499 15.2575 16.4436 14.5718 16.4436 13.7678V12.7747C15.7647 12.6092 15.039 12.4673 14.2899 12.3727C13.5407 12.2781 12.815 12.2309 12.0893 12.2309C10.5209 12.2309 9.37376 12.5382 8.60123 13.1767C7.8287 13.8151 7.45414 14.7137 7.45414 15.896C7.45414 17.0073 7.73506 17.8349 8.32031 18.4024C8.88215 18.9936 9.7015 19.2773 10.7784 19.2773ZM29.5766 21.831C29.1552 21.831 28.8743 21.7601 28.687 21.5946C28.4997 21.4527 28.3359 21.1217 28.1954 20.6724L22.6941 2.3942C22.5536 1.92128 22.4834 1.61389 22.4834 1.44837C22.4834 1.07003 22.6707 0.857222 23.0452 0.857222H25.3394C25.7842 0.857222 26.0885 0.92816 26.2524 1.09368C26.4397 1.23556 26.5801 1.5666 26.7206 2.01587L30.6535 17.6694L34.3054 2.01587C34.4225 1.54295 34.5629 1.23556 34.7502 1.09368C34.9375 0.951806 35.2652 0.857222 35.6866 0.857222H37.5594C38.0042 0.857222 38.3086 0.92816 38.4958 1.09368C38.6831 1.23556 38.847 1.5666 38.9406 2.01587L42.6394 17.8586L46.6893 2.01587C46.8298 1.54295 46.9937 1.23556 47.1575 1.09368C47.3448 0.951806 47.6491 0.857222 48.0705 0.857222H50.2477C50.6222 0.857222 50.8329 1.04639 50.8329 1.44837C50.8329 1.5666 50.8095 1.68483 50.7861 1.8267C50.7627 1.96858 50.7159 2.15774 50.6222 2.41785L44.9804 20.696C44.8399 21.169 44.6761 21.4764 44.4888 21.6182C44.3015 21.7601 43.9972 21.8547 43.5992 21.8547H41.586C41.1412 21.8547 40.8368 21.7838 40.6496 21.6182C40.4623 21.4527 40.2984 21.1453 40.2048 20.6724L36.5762 5.42086L32.9711 20.6488C32.854 21.1217 32.7136 21.4291 32.5263 21.5946C32.339 21.7601 32.0113 21.831 31.5899 21.831H29.5766ZM59.6585 22.4695C58.4412 22.4695 57.2238 22.3276 56.0533 22.0439C54.8828 21.7601 53.9699 21.4527 53.3612 21.098C52.9866 20.8852 52.7291 20.6488 52.6355 20.4359C52.5418 20.2231 52.495 19.9867 52.495 19.7739V18.5679C52.495 18.0714 52.6823 17.8349 53.0335 17.8349C53.1739 17.8349 53.3144 17.8586 53.4548 17.9058C53.5953 17.9531 53.806 18.0477 54.0401 18.1423C54.836 18.497 55.7022 18.7807 56.6152 18.9699C57.5516 19.1591 58.4646 19.2537 59.401 19.2537C60.8758 19.2537 62.0229 18.9936 62.8188 18.4733C63.6148 17.9531 64.0362 17.1965 64.0362 16.227C64.0362 15.5649 63.8255 15.0211 63.4041 14.5718C62.9827 14.1225 62.1868 13.7205 61.0397 13.3422L57.6452 12.2781C55.9363 11.7343 54.6722 10.9303 53.8996 9.86627C53.1271 8.82586 52.7291 7.66721 52.7291 6.43763C52.7291 5.44451 52.9398 4.56961 53.3612 3.81295C53.7826 3.05628 54.3444 2.3942 55.0467 1.87399C55.749 1.33014 56.545 0.92816 57.4814 0.64441C58.4178 0.360661 59.401 0.242432 60.431 0.242432C60.946 0.242432 61.4845 0.266077 61.9995 0.337015C62.5379 0.407952 63.0295 0.502535 63.5211 0.597119C63.9893 0.715348 64.4341 0.833577 64.8555 0.975451C65.2769 1.11733 65.6046 1.2592 65.8387 1.40108C66.1665 1.59024 66.4006 1.77941 66.541 1.99222C66.6815 2.18139 66.7517 2.44149 66.7517 2.77253V3.88388C66.7517 4.38045 66.5644 4.64055 66.2133 4.64055C66.026 4.64055 65.7217 4.54597 65.3237 4.3568C63.9893 3.74201 62.4911 3.43461 60.829 3.43461C59.4946 3.43461 58.4412 3.64743 57.7155 4.0967C56.9897 4.54597 56.6152 5.2317 56.6152 6.20117C56.6152 6.86326 56.8493 7.43075 57.3175 7.88002C57.7857 8.3293 58.6519 8.77857 59.8926 9.18054L63.2168 10.2446C64.9023 10.7885 66.1197 11.5451 66.8454 12.5146C67.5711 13.4841 67.9222 14.5954 67.9222 15.825C67.9222 16.8418 67.7115 17.764 67.3136 18.5679C66.8922 19.3719 66.3303 20.0813 65.6046 20.6488C64.8789 21.2399 64.0128 21.6655 63.0061 21.9729C61.9527 22.304 60.8524 22.4695 59.6585 22.4695Z" fill="#606060"/>
<path id="Vector_2" d="M64.083 33.9614C56.3811 39.7073 45.1911 42.7576 35.5696 42.7576C22.0854 42.7576 9.9356 37.721 0.758875 29.3504C0.033164 28.6883 0.688645 27.7898 1.55482 28.31C11.4807 34.1269 23.7241 37.6501 36.3889 37.6501C44.9336 37.6501 54.321 35.853 62.9593 32.1643C64.2469 31.5731 65.3471 33.0155 64.083 33.9614ZM67.2902 30.2726C66.3069 28.9957 60.7822 29.6578 58.2773 29.9652C57.5282 30.0598 57.4111 29.3977 58.09 28.9012C62.4911 25.7799 69.7248 26.6785 70.5676 27.7189C71.4103 28.7829 70.3335 36.0895 66.2133 39.5891C65.5812 40.1329 64.9726 39.8492 65.2535 39.1398C66.1899 36.7989 68.2734 31.5258 67.2902 30.2726Z" fill="#606060"/>
</g>
</g>
<defs>
<clipPath id="clip0_1_899">
<rect width="70.3939" height="42.5152" fill="white" transform="translate(0.454544 0.242432)"/>
</clipPath>
</defs>
</svg>
