<svg width="39" height="39" viewBox="0 0 39 39" fill="none" xmlns="http://www.w3.org/2000/svg">
<g id="cart-large-2_svgrepo.com">
<path id="Vector" d="M3.25 4.875L3.68048 5.01849C5.82554 5.73352 6.89808 6.09102 7.51153 6.94216C8.125 7.79329 8.125 8.92383 8.125 11.1849V15.4375C8.125 20.0336 8.125 22.3317 9.55286 23.7596C10.9807 25.1875 13.2788 25.1875 17.875 25.1875H30.875" stroke="white" stroke-width="2" stroke-linecap="round"/>
<path id="Vector_2" d="M12.1875 29.25C13.5337 29.25 14.625 30.3413 14.625 31.6875C14.625 33.0337 13.5337 34.125 12.1875 34.125C10.8413 34.125 9.75 33.0337 9.75 31.6875C9.75 30.3413 10.8413 29.25 12.1875 29.25Z" stroke="white" stroke-width="2"/>
<path id="Vector_3" d="M26.8125 29.2502C28.1587 29.2502 29.25 30.3414 29.25 31.6877C29.25 33.0339 28.1587 34.1252 26.8125 34.1252C25.4663 34.1252 24.375 33.0339 24.375 31.6877C24.375 30.3414 25.4663 29.2502 26.8125 29.2502Z" stroke="white" stroke-width="2"/>
<path id="Vector_4" d="M8.125 9.75H26.7319C30.0713 9.75 31.7408 9.75 32.4634 10.8457C33.1859 11.9414 32.5281 13.476 31.2127 16.5454L30.5162 18.1704C29.9021 19.6033 29.595 20.3198 28.9845 20.7225C28.374 21.125 27.5944 21.125 26.0354 21.125H8.125" stroke="white" stroke-width="2"/>
</g>
</svg>
