<svg width="92" height="50" viewBox="0 0 92 50" fill="none" xmlns="http://www.w3.org/2000/svg">
<g id="Cash">
<g id="Group">
<path id="Vector" d="M44.1655 25.8527C43.8687 36.1692 35.4575 44.1511 25.4369 43.8542C20.6264 43.7144 16.455 41.8689 13.0597 38.3757C9.56163 34.7778 7.75839 30.3822 7.75839 25.3171C7.76981 14.3544 16.649 6.19202 26.835 6.68688C36.7699 7.17592 44.5136 15.7051 44.1655 25.8527ZM33.4202 8.50915C33.4202 8.48004 33.4145 8.45093 33.4145 8.416C33.2776 8.39853 33.1463 8.35778 33.0094 8.35778C32.0621 8.35778 31.1206 8.33449 30.1847 8.57901C29.3401 8.80025 28.4671 8.92833 27.6339 9.17867C26.3043 9.58039 25.0546 10.1917 23.8506 10.902C22.2585 11.8393 20.8433 12.992 19.6449 14.4184C18.6976 15.5479 17.9159 16.7821 17.2996 18.127C16.5863 19.6931 16.1183 21.3349 15.9585 23.0524C15.8444 24.3157 15.9243 25.5791 16.1697 26.8308C16.5235 28.6356 17.2482 30.2657 18.3781 31.6863C19.5422 33.1476 20.9802 34.248 22.7207 34.9349C24.2272 35.5288 25.7736 35.7326 27.3657 35.5346C28.3586 35.4123 29.3173 35.1271 30.2361 34.7079C31.7369 34.0209 32.9637 32.9962 33.9338 31.6572C35.0922 30.0562 35.777 28.2688 35.8854 26.2603C35.9824 24.4904 35.7085 22.802 34.9268 21.2184C34.1849 19.7164 33.0436 18.5928 31.6398 17.7311C30.5328 17.0558 29.3344 16.5958 28.0847 16.2756C27.8964 16.229 27.8051 16.1417 27.8279 15.9379C27.8679 15.5188 27.8736 15.0879 27.9421 14.6746C28.4157 12.0081 29.9108 10.1393 32.279 8.96908C32.6442 8.79442 33.0379 8.66052 33.4202 8.50915Z" fill="#606060"/>
<path id="Vector_2" d="M78.4954 11.9732C78.0503 11.7636 77.6623 11.5657 77.2628 11.391C77.0745 11.3095 76.9946 11.1989 77.0003 10.9776C77.0117 10.18 76.9946 9.38825 77.006 8.59065C77.0117 8.32866 76.9376 8.23551 76.6694 8.23551C73.7477 8.24133 70.8317 8.24133 67.91 8.24133C67.5562 8.24133 67.5505 8.24715 67.5505 8.65469C67.5505 10.4595 67.5448 12.2643 67.5505 14.0691C67.5505 14.628 67.5733 15.1927 67.5847 15.7516C67.5847 15.7866 67.6018 15.8215 67.6246 15.9321C67.87 15.6236 68.0812 15.3557 68.3037 15.0763C68.5491 15.4023 68.7773 15.7225 69.0227 16.0311C69.4108 16.5143 69.8559 16.9335 70.4208 17.1897C70.6491 17.2945 70.826 17.2828 71.0371 17.1082C72.0243 16.3105 72.8746 15.3907 73.6335 14.366C74.2955 13.4636 74.8718 12.5146 75.3455 11.5016C75.4368 11.3095 75.5281 11.292 75.6936 11.3735C76.4354 11.7403 77.1715 12.0955 77.9134 12.4622C78.9405 12.9687 79.9734 13.4694 81.0005 13.9759C81.691 14.3194 82.3872 14.6571 83.0777 15.0064C83.1176 15.0239 83.1519 15.0646 83.2375 15.1345C82.935 15.5246 82.6554 15.9263 82.3358 16.2873C81.0062 17.801 79.3286 18.7732 77.4625 19.402C76.6579 19.6698 75.8191 19.8445 74.9917 20.0017C73.0686 20.3743 71.1227 20.3219 69.1768 20.2287C68.7431 20.2054 68.3094 20.1647 67.8757 20.1123C67.6189 20.0832 67.539 20.1938 67.539 20.4383C67.5448 21.6434 67.539 22.8428 67.539 24.0479C67.539 24.2691 67.539 24.4962 67.539 24.7174C67.539 24.9212 67.6132 25.0085 67.8301 25.0085C70.786 25.0027 73.7477 25.0027 76.7036 25.0085C77.0231 25.0085 76.9946 24.7989 76.9946 24.601C77.0003 23.2736 77.006 21.9404 76.9946 20.613C76.9946 20.351 77.0745 20.2462 77.3199 20.1705C77.7079 20.0599 78.0788 19.8969 78.5068 19.7397C78.5182 19.8852 78.5354 19.9958 78.5354 20.1065C78.5411 22.7729 78.5468 25.4452 78.5354 28.1116C78.5296 29.3983 77.5196 30.4171 76.2642 30.4171C73.5936 30.4229 70.9173 30.4288 68.2466 30.4171C67.0026 30.4113 66.0097 29.3808 66.0097 28.0883C66.0097 25.6722 66.0097 23.2561 66.0097 20.84C66.0097 20.514 66.0097 20.1821 66.0097 19.8852C64.5888 19.565 63.2193 19.2623 61.8497 18.9537C61.8554 18.9304 61.8554 18.9071 61.8611 18.878C63.3049 18.977 64.566 18.4647 65.7472 17.6671C65.9584 17.5273 66.0154 17.3527 66.0154 17.1082C66.0097 14.302 66.0154 11.5016 66.0097 8.69544C66.0097 8.11907 66.1124 7.58345 66.4491 7.10605C66.8999 6.47146 67.5333 6.15708 68.2752 6.15125C70.9287 6.12797 73.5822 6.12797 76.2357 6.15125C77.5653 6.1629 78.4954 7.15263 78.5296 8.45674C78.5582 9.51052 78.5354 10.5701 78.5354 11.6297C78.5468 11.7403 78.5182 11.8451 78.4954 11.9732ZM73.3083 27.3722C73.3083 27.1277 73.3368 26.8832 73.2968 26.6445C73.2797 26.5397 73.1428 26.3767 73.0515 26.3709C72.5778 26.3417 72.1042 26.3476 71.6249 26.365C71.4765 26.3709 71.3167 26.4291 71.3167 26.6328C71.3167 27.1277 71.2996 27.6226 71.3281 28.1174C71.3338 28.2106 71.4993 28.3736 71.5963 28.3794C72.07 28.4085 72.5436 28.3969 73.0229 28.3969C73.2055 28.3969 73.3026 28.2979 73.3026 28.1058C73.3083 27.8555 73.3083 27.6109 73.3083 27.3722ZM69.4507 27.9311C70.0156 27.9195 69.9928 28.0301 69.9928 27.2965C69.9928 26.8424 69.9757 26.8075 69.4964 26.8308C68.8458 26.8657 68.9143 26.8774 68.9086 27.3664C68.9029 27.9311 68.9086 27.9311 69.4507 27.9311ZM75.2484 27.9311C75.762 27.9311 75.762 27.9311 75.762 27.4013C75.762 27.3024 75.7734 27.2034 75.7563 27.1102C75.7392 27.0287 75.6993 26.8948 75.6593 26.889C75.3911 26.8599 75.1115 26.825 74.8547 26.8832C74.7691 26.9007 74.6949 27.1801 74.6892 27.3373C74.6778 27.9311 74.6892 27.9311 75.2484 27.9311Z" fill="#606060"/>
<path id="Vector_3" d="M83.5855 43.6737C83.5855 43.4 83.5855 43.1381 83.5855 42.8819C83.5855 41.7583 83.5913 40.6346 83.5798 39.5052C83.5741 39.0161 83.5057 38.5445 83.0891 38.201C82.6668 37.8576 82.2331 37.9682 81.8051 38.1545C81.6111 38.2418 81.4 38.3524 81.263 38.5096C81.1432 38.6552 81.0747 38.8822 81.069 39.0743C81.0519 40.4425 81.0633 41.8107 81.0633 43.1788C81.0633 43.8134 81.0918 43.6795 80.5668 43.6911C80.2359 43.697 79.8992 43.6795 79.5682 43.697C79.3057 43.7144 79.2315 43.6213 79.2315 43.3535C79.243 40.5124 79.2372 37.6712 79.2372 34.8301C79.2372 34.5856 79.2201 34.3411 79.2429 34.1024C79.2487 34.0209 79.3571 33.8812 79.4198 33.8753C79.9106 33.8579 80.4071 33.8521 80.9035 33.8753C80.9606 33.8753 81.0576 34.05 81.0576 34.1432C81.069 34.9408 81.069 35.7325 81.069 36.5301C81.069 36.6349 81.069 36.7397 81.069 36.9144C81.2174 36.8678 81.3372 36.8504 81.4285 36.7921C82.0391 36.4021 82.7011 36.3904 83.3972 36.4486C84.5842 36.5476 85.2918 37.5606 85.3374 38.5911C85.3945 39.8778 85.3888 41.1644 85.4059 42.4511C85.4116 42.847 85.4059 43.2429 85.4059 43.6679C84.8124 43.6737 84.2361 43.6737 83.5855 43.6737Z" fill="#606060"/>
<path id="Vector_4" d="M69.9301 43.3186C69.6447 43.4583 69.3765 43.6504 69.0741 43.7319C68.0127 44.0172 66.8429 43.7901 66.2494 42.7189C65.6445 41.6244 65.9241 40.2853 67.2138 39.6391C67.9328 39.2781 68.7146 39.1733 69.4964 39.1093C69.8445 39.0802 69.9015 38.9987 69.8388 38.661C69.7589 38.2535 69.5192 38.0439 69.1312 37.974C68.5434 37.8692 68.0013 37.9973 67.4991 38.3117C67.3622 38.399 67.2252 38.4747 67.0426 38.5795C66.86 38.1778 66.6831 37.7994 66.529 37.4093C66.5062 37.3453 66.5747 37.1997 66.6374 37.1531C67.5619 36.5418 68.5776 36.3148 69.6733 36.4661C71.0828 36.6641 71.6762 37.7295 71.6933 38.987C71.7105 40.4542 71.699 41.9155 71.7048 43.3826C71.7048 43.6155 71.6477 43.7203 71.4023 43.7028C71.1113 43.6854 70.8145 43.697 70.5178 43.697C70.0841 43.697 70.0841 43.697 69.9301 43.3186ZM69.8901 41.1121C69.8901 40.984 69.8844 40.8617 69.8958 40.7336C69.9186 40.4658 69.8045 40.3552 69.5477 40.4076C69.1711 40.4833 68.7831 40.5415 68.4121 40.6405C68.0013 40.7569 67.7274 41.147 67.7388 41.5371C67.7502 41.9155 67.9556 42.1425 68.4236 42.2648C68.9143 42.3929 69.3366 42.1775 69.7246 41.9155C70.0042 41.7292 69.8559 41.4206 69.8901 41.1645C69.8958 41.1528 69.8901 41.1295 69.8901 41.1121Z" fill="#606060"/>
<path id="Vector_5" d="M73.1428 41.5429C73.5137 41.7466 73.8447 41.9504 74.1985 42.1076C74.8091 42.3812 75.4482 42.4569 76.1101 42.323C76.4126 42.2648 76.6123 42.0494 76.6465 41.7699C76.6808 41.5196 76.5267 41.2576 76.2357 41.147C75.8762 41.0072 75.4995 40.9025 75.1343 40.786C74.7121 40.6463 74.2727 40.5473 73.8732 40.361C72.8917 39.9011 72.6463 38.923 72.8746 37.9973C73.0914 37.1298 73.7191 36.6757 74.5294 36.5185C75.7107 36.2915 76.8691 36.4079 77.959 36.9726C78.1759 37.0833 78.2329 37.2055 78.1302 37.4268C78.0047 37.7062 77.8848 37.9915 77.7593 38.2768C77.6794 38.4572 77.5995 38.5213 77.3998 38.3932C76.7378 37.974 76.0188 37.7702 75.2313 37.875C74.9517 37.91 74.7235 38.0206 74.5922 38.2942C74.4667 38.5679 74.5694 38.8997 74.849 38.987C75.4482 39.1792 76.0588 39.3305 76.6637 39.5227C77.3313 39.7322 77.9419 40.0408 78.2044 40.7627C78.6153 41.8747 78.2443 43.1439 77.0745 43.5631C75.5566 44.1103 74.0786 43.9182 72.6863 43.0799C72.5037 42.9692 72.4694 42.8586 72.5779 42.6549C72.7205 42.3987 72.8289 42.1134 72.9545 41.8456C73.0172 41.735 73.0857 41.636 73.1428 41.5429Z" fill="#606060"/>
<path id="Vector_6" d="M64.7714 41.5778C64.9426 42.0552 65.1024 42.486 65.2394 42.9284C65.2622 43.0041 65.1823 43.1497 65.1081 43.2021C64.6459 43.5456 64.1038 43.6969 63.5503 43.7843C62.7457 43.9065 61.941 43.8949 61.1878 43.5165C60.2291 43.0332 59.7155 42.1949 59.5215 41.1586C59.3503 40.2562 59.3846 39.3479 59.7155 38.4688C60.1892 37.188 61.2334 36.4312 62.5859 36.4137C63.7215 36.402 64.6288 36.8154 65.2451 37.8284C65.3649 38.0264 65.3649 38.137 65.1538 38.2651C64.8513 38.4455 64.566 38.6551 64.2864 38.8706C64.0924 39.0219 63.984 38.9695 63.8584 38.7774C63.7272 38.5795 63.5788 38.3815 63.3962 38.236C62.8712 37.8051 62.0609 37.9332 61.6728 38.5387C61.4959 38.8123 61.3476 39.15 61.319 39.4702C61.2791 39.9825 61.2791 40.524 61.3932 41.0188C61.6101 41.9504 62.3063 42.3754 63.2364 42.2356C63.6986 42.1658 64.1437 42.0319 64.5204 41.7408C64.5831 41.6825 64.663 41.6476 64.7714 41.5778Z" fill="#606060"/>
<path id="Vector_7" d="M49.9176 43.7785C49.9176 31.2613 49.9176 18.7616 49.9176 6.23859C50.0888 6.23859 50.2542 6.23859 50.454 6.23859C50.4597 6.32592 50.4711 6.41907 50.4711 6.51222C50.4711 18.6451 50.4711 30.7839 50.4654 42.9168C50.4654 43.0624 50.4654 43.2079 50.4654 43.3535C50.4711 43.86 50.4597 43.8658 49.9176 43.7785Z" fill="#606060"/>
</g>
</g>
</svg>
