<svg width="35" height="35" viewBox="0 0 35 35" fill="none" xmlns="http://www.w3.org/2000/svg">
<g id="chat-round-line_svgrepo.com">
<path id="Vector" d="M11.6667 15.3125H23.3334" stroke="white" stroke-width="2.5" stroke-linecap="round"/>
<path id="Vector_2" d="M11.6667 20.4167H19.6875" stroke="white" stroke-width="2.5" stroke-linecap="round"/>
<path id="Vector_3" d="M24.7917 4.86774C22.6466 3.62691 20.1562 2.91675 17.5 2.91675C9.44586 2.91675 2.91669 9.44592 2.91669 17.5001C2.91669 19.833 3.46447 22.0378 4.4384 23.9933C4.69722 24.5129 4.78337 25.1069 4.63332 25.6676L3.76472 28.914C3.38766 30.3232 4.67691 31.6124 6.08616 31.2354L9.33246 30.3668C9.89325 30.2167 10.4872 30.3029 11.0068 30.5616C12.9622 31.5357 15.1671 32.0834 17.5 32.0834C25.5541 32.0834 32.0834 25.5542 32.0834 17.5001C32.0834 14.8439 31.3731 12.3534 30.1324 10.2084" stroke="white" stroke-width="2.5" stroke-linecap="round"/>
</g>
</svg>
