<svg width="156" height="45" viewBox="0 0 156 45" fill="none" xmlns="http://www.w3.org/2000/svg">
<g id="Fawry" clip-path="url(#clip0_1_871)">
<g id="Group">
<g id="Group_2">
<path id="Vector" d="M96.6635 23.7462C97.0599 22.4641 97.3997 21.182 97.7961 19.8425C98.2868 18.1585 98.7399 16.5128 99.2495 14.848C99.6082 13.6615 100.193 13.2023 101.401 13.2023C102.251 13.2023 103.1 13.2023 103.931 13.2023C105.026 13.2023 105.667 13.6615 105.969 14.7331C106.781 17.4505 107.555 20.206 108.329 22.9234C108.404 23.1721 108.499 23.4592 108.687 23.7079C108.82 23.2869 108.933 22.8851 109.084 22.4641C109.782 20.0338 110.5 17.5653 111.236 15.135C111.651 13.6998 112.368 13.164 113.803 13.164C114.728 13.164 115.634 13.164 116.521 13.164C117.295 13.164 117.616 13.5276 117.446 14.2739C117.201 15.2307 116.88 16.2066 116.596 17.1251C115.219 21.4882 113.803 25.8894 112.444 30.2333C112.047 31.4198 111.311 31.9173 110.122 31.9556C109.461 31.9556 108.782 31.9556 108.121 31.9556C106.932 31.9556 106.139 31.3815 105.799 30.2333C104.856 27.1333 103.855 24.0141 102.911 20.9141C102.874 20.7419 102.798 20.5888 102.704 20.2635C102.591 20.5505 102.572 20.6844 102.496 20.8375C101.515 23.9376 100.552 27.095 99.5704 30.195C99.2118 31.3815 98.4379 31.9173 97.2109 31.9173C96.5125 31.9173 95.833 31.9173 95.1346 31.9173C94.002 31.9173 93.2659 31.3432 92.9072 30.2716C91.3971 25.5259 89.9059 20.7993 88.3959 16.0535C88.2637 15.556 88.075 15.0967 87.9428 14.5801C87.8673 14.3313 87.8296 14.0825 87.8296 13.8337C87.8296 13.3362 88.075 13.0874 88.5658 13.0874C89.6983 13.0874 90.7931 13.0492 91.9068 13.0874C92.9261 13.1257 93.6622 13.7381 93.9831 14.7331C94.7948 17.527 95.6065 20.3017 96.4559 23.0956C96.4936 23.2678 96.5691 23.4209 96.588 23.5931C96.5691 23.7462 96.6069 23.7462 96.6635 23.7462Z" fill="#606060"/>
<path id="Vector_2" d="M80.8078 30.5394C80.5246 30.7117 80.2792 30.8648 80.0338 30.9987C78.2784 32.1086 76.2964 32.4722 74.2578 32.3956C72.9176 32.3191 71.6529 32.1086 70.4071 31.5345C68.1798 30.5012 66.9528 28.5684 67.0283 26.2721C67.1038 23.7079 68.4063 22.0239 70.728 21.0863C71.955 20.5887 73.2574 20.3782 74.5976 20.3782C76.3342 20.3782 78.0896 20.3782 79.8073 20.3782C80.2604 20.3782 80.3736 20.2443 80.3359 19.8041C80.0905 17.6226 79.2033 16.7615 77.0137 16.7615C76.1265 16.7615 75.2771 16.8763 74.5032 17.2973C74.2201 17.4695 73.9369 17.6992 73.6915 17.9479C73.163 18.5603 72.5212 18.8473 71.7473 18.8473C71.0112 18.8473 70.275 18.8473 69.52 18.8473C68.6328 18.8473 68.2553 18.3881 68.3308 17.4887C68.4629 15.7282 69.3878 14.5991 70.9357 13.872C72.2003 13.2979 73.5405 13.0874 74.9185 12.9343C76.8249 12.8004 78.7314 12.7238 80.6001 13.2213C82.6387 13.7189 84.2998 14.7522 85.2813 16.7232C85.8099 17.7949 86.0175 18.9047 86.0175 20.0912C86.0175 23.6696 86.0175 27.248 86.0175 30.8456C86.0175 31.7067 85.6589 32.0321 84.8472 32.0321C83.9223 32.0321 83.0162 32.0321 82.1291 32.0321C81.2042 32.0321 80.9021 31.745 80.8644 30.7882C80.8455 30.7499 80.8455 30.6734 80.8078 30.5394ZM77.4667 24.282C76.6173 24.3202 75.7301 24.282 74.8996 24.3202C74.0502 24.3585 73.3518 24.7412 72.9554 25.5641C72.3891 26.7696 73.0875 28.1092 74.4655 28.3962C76.5418 28.8172 78.4105 28.1474 80.1849 27.0758C80.2981 26.9993 80.3547 26.7888 80.3547 26.6166C80.3925 26.0042 80.3547 25.3727 80.3547 24.7604C80.3547 24.3968 80.2226 24.3011 79.9017 24.3011C79.0712 24.282 78.2784 24.282 77.4667 24.282Z" fill="#606060"/>
<path id="Vector_3" d="M145.212 30.6351C144.646 30.5586 144.155 30.5203 143.702 30.4247C142.117 30.1376 140.852 29.3148 139.852 28.0326C138.757 26.5974 138.096 24.99 137.568 23.3061C136.643 20.34 135.774 17.3739 134.925 14.4078C134.717 13.6998 135.038 13.2596 135.774 13.2596C136.831 13.2596 137.926 13.2596 138.983 13.2596C139.833 13.2596 140.399 13.6806 140.644 14.5418C141.456 17.1825 142.23 19.8233 143.042 22.4832C143.363 23.5548 143.778 24.5882 144.495 25.4876C144.873 25.9468 145.345 26.3104 145.949 26.4252C146.307 26.5018 146.477 26.4252 146.59 26.0234C147.534 22.5215 148.497 19.0196 149.441 15.5177C149.554 15.1541 149.648 14.7714 149.761 14.4078C149.969 13.6615 150.498 13.2596 151.272 13.2596C152.329 13.2596 153.386 13.2596 154.443 13.2596C155.254 13.2596 155.575 13.6806 155.368 14.4461C153.858 20.0147 152.366 25.6406 150.819 31.2092C150.46 32.4913 149.894 33.7543 149.308 34.9216C148.176 37.1031 146.307 38.2513 143.872 38.213C142.4 38.213 140.909 38.0408 139.436 37.8494C138.7 37.7729 138.379 37.3519 138.379 36.6056C138.379 36.0315 138.379 35.4957 138.379 34.9216C138.379 34.2519 138.776 33.85 139.436 33.85C140.135 33.8883 140.89 33.9648 141.588 34.0605C142.607 34.2327 143.495 33.9457 144.155 33.1611C144.646 32.4722 144.967 31.6111 145.212 30.6351Z" fill="#606060"/>
<path id="Vector_4" d="M52.8525 22.598C52.8525 19.8807 52.777 17.2017 52.8903 14.4844C52.928 13.4127 53.1734 12.3028 53.4943 11.2695C54.1927 9.12627 55.8538 8.01638 57.9302 7.51884C60.2141 6.94476 62.5548 6.98303 64.8765 7.19353C65.4805 7.2318 66.0657 7.32748 66.632 7.4423C67.3681 7.57625 67.689 7.97811 67.689 8.72441C67.689 9.26022 67.689 9.75776 67.689 10.2936C67.6513 11.0399 67.2926 11.4417 66.5187 11.4417C65.9902 11.4417 65.4616 11.4035 64.9331 11.3078C63.5174 11.0207 62.1206 11.1355 60.7427 11.48C59.4025 11.8053 58.7607 12.6282 58.5908 14.1973C58.5153 14.6566 58.5153 15.1541 58.4776 15.6325C58.4398 16.0535 58.5908 16.2066 59.0438 16.2066C60.7804 16.1683 62.5359 16.2066 64.2536 16.2066C65.1785 16.2066 65.4805 16.5319 65.5183 17.4504C65.5183 18.0245 65.5183 18.5986 65.5183 19.1727C65.5183 19.919 65.1219 20.3208 64.348 20.3208C62.5925 20.3208 60.7804 20.3208 59.025 20.3208C58.6097 20.3208 58.4587 20.4548 58.4587 20.8949C58.4587 24.1863 58.4587 27.4777 58.4587 30.7882C58.4587 31.7833 58.1378 32.1086 57.1562 32.1086C56.1369 32.1086 55.0799 32.1086 54.0606 32.1086C53.1168 32.1086 52.7959 31.7833 52.7959 30.8265C52.8148 28.0327 52.8148 25.3153 52.8525 22.598Z" fill="#606060"/>
<path id="Vector_5" d="M125.581 15.3455C126.11 14.9819 126.506 14.6949 126.884 14.4461C128.715 13.2405 130.753 12.877 132.905 12.877C133.509 12.877 133.887 13.2788 133.925 13.9103C133.962 14.7714 133.962 15.6708 133.925 16.5128C133.887 17.1826 133.528 17.5461 132.868 17.5461C132.094 17.5461 131.282 17.5461 130.508 17.4696C128.96 17.3356 127.696 17.8906 126.525 18.9431C125.827 19.5937 125.506 20.2635 125.544 21.2585C125.619 24.3968 125.581 27.5543 125.581 30.7309C125.581 31.7259 125.261 32.0512 124.241 32.0512C123.146 32.0512 122.089 32.0512 120.995 32.0512C120.258 32.0512 119.862 31.6494 119.862 30.9031C119.862 25.3919 119.862 19.8999 119.862 14.3887C119.862 13.6424 120.258 13.2405 120.995 13.2405C122.165 13.2405 123.316 13.2405 124.487 13.2405C125.185 13.2405 125.544 13.6424 125.581 14.3504C125.581 14.6375 125.581 14.9245 125.581 15.3455Z" fill="#606060"/>
</g>
<path id="Vector_6" d="M43.9997 22.4641C43.9997 34.7877 34.1654 44.7575 22.0093 44.7575C19.6876 44.7575 17.4602 44.394 15.3839 43.7242C12.2505 42.7291 9.4002 41.0069 7.02184 38.7488C2.68038 34.7111 0 28.8938 0 22.445C0 10.1214 9.83435 0.151489 21.9904 0.151489C24.6331 0.151489 27.1436 0.610754 29.4653 1.47187C32.5043 2.58176 35.2413 4.36141 37.4687 6.61946C41.5081 10.6954 43.9997 16.2832 43.9997 22.4641Z" fill="#606060"/>
<path id="Vector_7" d="M32.2023 31.9364L29.2388 30.4438C29.2388 30.4438 24.1989 39.7631 15.3461 43.7434C12.2127 42.7483 9.36245 41.0261 6.98409 38.768C8.9283 38.481 12.0617 37.4859 15.3461 34.1945C20.7446 28.8364 21.9716 25.8703 21.9716 25.8703L19.6498 24.3012C18.8382 23.7654 19.008 22.5407 19.8952 22.2345L30.0504 18.656C30.7489 18.4073 31.5039 18.8665 31.5605 19.6129L33.0706 31.2667C33.2216 31.7834 32.6931 32.1852 32.2023 31.9364Z" fill="white"/>
<path id="Vector_8" d="M35.2602 19.0196C35.0148 19.6702 34.0899 19.5554 33.9955 18.8857L33.3349 14.9628L28.3327 16.5319C27.7665 16.7042 27.2757 16.1301 27.5211 15.5943C28.1817 14.1591 29.1444 11.7671 29.9183 8.7053C30.6167 5.77749 30.126 3.19413 29.5219 1.5293C32.5609 2.63919 35.298 4.41884 37.5253 6.67689C37.9028 11.3078 36.3173 16.2832 35.2602 19.0196Z" fill="white"/>
</g>
</g>
<defs>
<clipPath id="clip0_1_871">
<rect width="155.424" height="44.6061" fill="white" transform="translate(0 0.151489)"/>
</clipPath>
</defs>
</svg>
