<svg width="69" height="69" viewBox="0 0 69 69" fill="none" xmlns="http://www.w3.org/2000/svg">
<g id="Meeza">
<g id="Group">
<path id="Vector" d="M51.1059 45.4775C47.6107 47.9589 41.4607 47.9455 38.5392 44.3703C35.2974 47.8255 31.3487 47.5853 27.1865 46.4781C27.0931 48.0923 26.9997 49.7065 26.893 51.3073C26.8663 51.8409 26.8396 52.3746 26.7729 52.8948C26.5861 54.3089 25.3855 55.5096 23.9581 55.5896C22.7174 55.6563 21.4767 55.6029 20.1427 55.6029C20.8898 44.2102 21.6368 32.8575 22.3839 21.5181C23.8513 21.5181 25.3054 21.3847 26.7195 21.5581C27.9869 21.7182 28.7473 23.0123 28.6539 24.4397C28.4405 27.8548 28.1736 31.27 27.9735 34.6851C27.7334 38.8207 29.8412 41.0752 34.0034 41.1419C34.8305 41.1552 35.671 40.9418 36.4847 40.7684C36.6448 40.7417 36.885 40.4215 36.8583 40.2748C36.4981 38.4205 36.6582 36.5528 36.7782 34.6985C37.0717 30.4029 37.3785 26.1072 37.672 21.7983C37.6854 21.6915 37.6987 21.5848 37.7121 21.4781C39.0861 21.4781 40.4468 21.3847 41.7809 21.5048C43.1016 21.6248 44.0221 22.9055 43.9554 24.3463C43.822 26.8143 43.6085 29.2689 43.5018 31.7236C43.4218 33.6046 43.2617 35.5122 43.4751 37.3666C43.7553 39.9413 45.783 41.4221 48.0509 41.0885C48.4778 34.5384 48.9047 28.0149 49.3449 21.4914C49.465 21.4514 49.5584 21.3981 49.6384 21.3981C53.2136 21.4114 56.8022 21.318 60.3775 21.4648C64.1128 21.6115 66.8742 24.7865 66.6741 28.5219C66.4874 32.2438 66.2472 35.9792 65.9671 39.6878C65.6603 43.6232 62.2184 46.7983 58.1896 46.905C56.989 46.9317 55.7883 46.945 54.5877 46.865C52.9869 46.7849 52.4399 46.5181 51.1059 45.4775ZM55.3214 27.8815C55.0546 31.7769 54.7878 35.5923 54.5477 39.3943C54.5077 40.0213 54.9079 40.4215 55.5749 40.4349C56.5354 40.4482 57.4826 40.4482 58.4431 40.4349C59.1635 40.4215 59.5504 40.048 59.6037 39.3276C59.6704 38.3938 59.7371 37.4733 59.7905 36.5395C59.9506 34.0315 60.124 31.5368 60.2707 29.0288C60.3108 28.3084 60.0039 27.8949 59.3769 27.8815C58.0429 27.8682 56.7088 27.8815 55.3214 27.8815Z" fill="#606060"/>
<path id="Vector_2" d="M20.1561 21.4514C20.036 23.4258 19.9159 25.3334 19.7825 27.2411C19.5291 31.0965 19.2356 34.9519 18.9954 38.8073C18.7553 42.7027 16.1806 45.8911 12.4186 46.438C10.4442 46.7182 8.36311 46.6781 6.38872 46.3847C3.38713 45.9177 1.11925 43.0762 1.15927 40.0213C1.18595 37.4732 1.43942 34.9252 1.59951 32.3772C1.67955 31.0432 1.71957 29.7091 1.90634 28.4017C2.47998 24.3863 5.64166 21.5314 9.68381 21.4514C13.0323 21.3713 16.3941 21.438 19.7425 21.438C19.8626 21.4114 19.9693 21.438 20.1561 21.4514ZM13.3391 27.8815C11.9117 27.8815 10.5776 27.8548 9.25692 27.8948C8.6566 27.9082 8.26973 28.3217 8.2297 28.9354C7.98958 32.2838 7.76279 35.6189 7.56268 38.9674C7.50932 39.8078 7.85617 40.128 8.70996 40.128C9.55041 40.128 10.4042 40.128 11.2446 40.128C12.1918 40.128 12.552 39.7678 12.6187 38.8073C12.6854 37.7 12.7655 36.5928 12.8455 35.4855C13.0056 32.9909 13.1657 30.4829 13.3391 27.8815Z" fill="#606060"/>
<path id="Vector_3" d="M65.4869 49.3062C65.3668 50.6803 65.3401 52.041 65.1267 53.3751C64.8999 54.7358 63.6192 55.7363 62.2718 55.7363C56.4687 55.7497 50.6657 55.7363 44.8626 55.7363C44.7292 55.7363 44.6091 55.723 44.3423 55.6963C44.489 54.2422 44.5157 52.7881 44.8092 51.4007C45.0893 50.08 46.29 49.2529 47.6107 49.2529C53.4538 49.2395 59.3103 49.2529 65.1534 49.2529C65.2201 49.2529 65.2868 49.2796 65.4869 49.3062Z" fill="#606060"/>
<path id="Vector_4" d="M34.6171 19.2502C33.9101 19.2502 33.2964 19.2502 32.6427 19.2502C32.616 19.1435 32.5627 19.0368 32.576 18.9434C32.6961 17.1024 32.8428 15.2614 32.9362 13.4205C32.9629 12.9536 33.1363 12.7534 33.5899 12.7001C34.8973 12.5533 36.1913 12.4333 37.4853 12.8335C37.6987 12.9002 37.9522 12.8068 38.1923 12.7935C39.0461 12.7534 39.9133 12.62 40.7537 12.6867C41.6208 12.7534 42.1011 13.2871 42.0744 14.1542C42.0477 15.755 41.9143 17.3426 41.7943 18.9434C41.7809 19.0635 41.5541 19.2502 41.4074 19.2636C40.8871 19.3036 40.3535 19.2769 39.7398 19.2769C39.7932 18.4898 39.8332 17.7694 39.8732 17.0491C39.9133 16.4754 39.9666 15.9018 39.98 15.3148C40.0066 14.4477 39.8999 14.3676 39.0328 14.381C38.886 14.381 38.726 14.4077 38.5525 14.421C38.4458 15.8484 38.3257 17.2492 38.259 18.6633C38.2324 19.1035 38.1123 19.3169 37.6454 19.2769C37.1918 19.2502 36.7249 19.2636 36.1646 19.2636C36.2046 18.5299 36.2446 17.8762 36.298 17.2225C36.338 16.5154 36.4047 15.8084 36.4314 15.1014C36.4581 14.5811 36.218 14.3676 35.671 14.3543C35.1374 14.3543 34.9373 14.4744 34.9106 15.048C34.8439 16.4354 34.7238 17.8095 34.6171 19.2502Z" fill="#606060"/>
<path id="Vector_5" d="M22.6908 12.7001C24.2516 12.7001 25.7457 12.6601 27.2265 12.7134C28.3338 12.7534 29.2142 13.794 29.2809 15.128C29.321 15.9151 29.2676 16.7289 29.1475 17.516C28.9875 18.6099 27.9736 19.3836 26.7463 19.4503C26.2527 19.477 25.7724 19.4637 25.2788 19.4503C23.7313 19.4237 22.3573 18.0896 22.3973 16.5288C22.424 15.2748 22.584 14.0208 22.6908 12.7001Z" fill="#606060"/>
<path id="Vector_6" d="M35.044 48.8927C34.9239 50.4402 34.8972 51.9343 34.6704 53.3884C34.457 54.8025 33.2697 55.6829 31.8289 55.6963C31.4687 55.6963 31.1219 55.6963 30.7617 55.6963C29.2275 55.6696 28.147 54.4823 28.267 52.9615C28.2937 52.4946 28.3337 52.0277 28.3738 51.5741C28.4938 50.1734 29.6144 48.9861 31.0018 48.9193C32.0824 48.866 33.1763 48.906 34.2702 48.906C34.4703 48.8927 34.6971 48.8927 35.044 48.8927Z" fill="#606060"/>
<path id="Vector_7" d="M42.728 48.9327C42.6347 50.3601 42.5946 51.7075 42.4479 53.0415C42.2745 54.6958 41.1005 55.6829 39.4196 55.6963C39.2595 55.6963 39.1128 55.6829 38.9527 55.6963C36.9917 55.8964 35.7243 54.5357 35.9911 52.5079C36.0311 52.1611 36.0578 51.8009 36.0978 51.454C36.2179 50.2 37.2318 49.0394 38.4724 48.946C39.8598 48.8526 41.2473 48.9327 42.728 48.9327Z" fill="#606060"/>
<path id="Vector_8" d="M19.4357 12.6734C19.3023 14.2876 19.2489 15.8484 18.9954 17.3559C18.782 18.6232 17.568 19.4637 16.274 19.477C15.9005 19.477 15.5136 19.477 15.14 19.477C13.6993 19.4637 12.6587 18.4498 12.6454 17.009C12.6454 16.3687 12.6854 15.715 12.7788 15.088C12.9789 13.7273 14.1929 12.6867 15.5536 12.6867C16.8209 12.66 18.0749 12.6734 19.4357 12.6734Z" fill="#606060"/>
<path id="Vector_9" d="M12.1651 12.6734C12.0451 14.2342 11.9917 15.7417 11.7916 17.2225C11.6182 18.4898 10.3775 19.4504 9.09682 19.477C8.66992 19.4904 8.25637 19.477 7.82948 19.477C6.48209 19.4504 5.4282 18.4365 5.41486 17.0758C5.40152 16.3954 5.45488 15.7017 5.5616 15.0213C5.76171 13.7006 6.96235 12.6867 8.30973 12.6734C9.56373 12.6601 10.8177 12.6734 12.1651 12.6734Z" fill="#606060"/>
<path id="Vector_10" d="M44.6758 16.6489C44.6091 17.3559 44.9826 17.5293 45.4895 17.5293C46.33 17.5293 47.1704 17.5293 48.1042 17.5293C48.0776 17.9962 48.0776 18.3965 47.9975 18.77C47.9708 18.9167 47.7574 19.1435 47.624 19.1435C46.3833 19.1835 45.1427 19.2503 43.9154 19.1569C43.1683 19.1035 42.648 18.5032 42.648 17.7428C42.6614 16.5288 42.7414 15.3148 42.9148 14.1142C43.0349 13.2871 43.6886 12.7801 44.489 12.7001C45.4095 12.6067 46.3433 12.6067 47.2638 12.6868C48.1176 12.7668 48.5978 13.3805 48.6512 14.2209C48.6779 14.7545 48.6645 15.2881 48.6912 15.8218C48.7179 16.4087 48.5045 16.6489 47.8775 16.6088C47.037 16.5555 46.1832 16.5955 45.3428 16.5955C45.1293 16.6088 44.9159 16.6355 44.6758 16.6489ZM44.7958 15.3148C45.4362 15.3148 46.0231 15.3148 46.6235 15.3148C46.6902 14.7278 46.5034 14.3943 45.8897 14.381C45.1026 14.3677 44.8759 14.5411 44.7958 15.3148Z" fill="#606060"/>
<path id="Vector_11" d="M54.4943 17.596C54.4943 17.9696 54.561 18.3298 54.4676 18.6233C54.4009 18.8367 54.1475 19.1569 53.9607 19.1569C52.8401 19.2236 51.7062 19.2769 50.5856 19.2102C49.6918 19.1569 49.0914 18.5966 49.0781 17.7161C49.0648 16.5288 49.1581 15.3282 49.3449 14.1542C49.4917 13.2604 50.1854 12.7401 51.0925 12.6734C51.9063 12.6067 52.7334 12.5934 53.5338 12.6734C54.4943 12.7668 54.9346 13.1937 55.068 14.1275C55.1613 14.7545 55.108 15.4082 55.1213 16.0486C55.1347 16.4888 54.8945 16.6089 54.481 16.6089C53.5872 16.5955 52.7067 16.5822 51.8129 16.6222C51.5728 16.6355 51.1725 16.7823 51.1459 16.9157C51.0658 17.3693 51.426 17.516 51.8129 17.5293C52.5066 17.5427 53.187 17.5293 53.8807 17.5427C54.0808 17.5427 54.2809 17.5827 54.4943 17.596ZM51.2126 15.3148C51.8529 15.3148 52.4399 15.3148 53.0402 15.3148C53.1336 14.7946 53.0135 14.461 52.4532 14.3943C51.6528 14.2876 51.3727 14.4744 51.2126 15.3148Z" fill="#606060"/>
<path id="Vector_12" d="M65.4201 15.1947C65.5402 14.5677 65.2601 14.381 64.7264 14.381C63.9127 14.381 63.0989 14.381 62.3252 14.381C62.2585 14.2209 62.2318 14.1809 62.2318 14.1275C62.1784 12.7934 62.2051 12.7267 63.5258 12.6334C64.3663 12.5667 65.22 12.58 66.0471 12.6734C67.1944 12.8068 67.608 13.3004 67.568 14.4477C67.5146 15.8217 67.4079 17.1958 67.2878 18.5699C67.2745 18.7566 66.9943 19.0768 66.8342 19.0768C65.4201 19.1435 64.0061 19.1969 62.592 19.1702C62.005 19.1568 61.6715 18.7166 61.5381 18.1296C61.1645 16.422 61.8983 15.4215 63.6325 15.2748C64.2328 15.2347 64.8332 15.2214 65.4201 15.1947ZM65.2867 16.5421C64.8732 16.5421 64.4463 16.4887 64.0594 16.5688C63.8727 16.6088 63.6726 16.889 63.6058 17.0891C63.5658 17.2358 63.7259 17.5293 63.8593 17.596C64.7398 17.9962 65.3801 17.5293 65.2867 16.5421Z" fill="#606060"/>
<path id="Vector_13" d="M58.3497 14.381C57.576 14.381 56.9757 14.3409 56.3887 14.3943C55.8017 14.4343 55.6416 14.1942 55.735 13.6606C55.7884 13.3538 55.8017 13.0469 55.8417 12.7001C57.656 12.7001 59.4436 12.7001 61.2713 12.7001C61.378 13.3404 61.3513 13.9274 60.8844 14.4744C60.0573 15.4215 59.2835 16.4087 58.3764 17.5026C59.2302 17.5026 59.9239 17.516 60.6176 17.5026C61.0712 17.4893 61.2179 17.6494 61.1379 18.1029C61.0712 18.4765 61.0712 18.85 61.0311 19.2502C59.1235 19.2502 57.2425 19.2502 55.3214 19.2502C55.2281 18.5965 55.2547 18.0362 55.7083 17.516C56.5488 16.5154 57.3892 15.5149 58.3497 14.381Z" fill="#606060"/>
</g>
</g>
</svg>
