<svg width="115" height="37" viewBox="0 0 115 37" fill="none" xmlns="http://www.w3.org/2000/svg">
<g id="VISA" clip-path="url(#clip0_1_893)">
<path id="Vector" fill-rule="evenodd" clip-rule="evenodd" d="M59.7762 11.9122C59.7233 16.9487 64.3536 19.7786 67.8462 21.4401C71.4446 23.1536 72.6617 24.2699 72.6353 25.8017C72.6088 28.1642 69.7777 29.1767 67.1053 29.2286C62.475 29.3065 59.7762 28.0084 57.633 27.0219L55.9661 34.7065C58.1093 35.6671 62.1046 36.5238 66.2322 36.5757C75.9426 36.5757 82.2663 31.8767 82.3193 24.5815C82.3457 15.3391 69.275 14.8199 69.3808 10.692C69.4073 9.44584 70.6244 8.09584 73.2967 7.75834C74.6197 7.5766 78.271 7.4468 82.3986 9.31603L84.0126 1.89101C81.7901 1.0862 78.9325 0.333313 75.3605 0.333313C66.2586 0.333313 59.8291 5.11025 59.7762 11.9122ZM99.6235 0.982353C97.8507 0.982353 96.369 1.99486 95.6811 3.55255L81.8166 36.0046H91.5005L93.4321 30.7863H105.286L106.397 36.0046H114.97L107.508 0.982353H99.6235ZM100.973 10.4583L103.778 23.6209H96.1044L100.973 10.4583ZM48.0284 0.982353L40.3817 36.0046H49.6159L57.2626 0.982353H48.0284ZM34.3755 0.982353L24.7444 24.8411L20.8549 4.56506C20.4051 2.3064 18.6059 0.982353 16.595 0.982353H0.878359L0.666687 1.99486C3.89469 2.66986 7.54604 3.78621 9.7686 4.98044C11.118 5.70737 11.5149 6.33045 11.9647 8.06988L19.3203 36.0305H29.0837L44.0595 0.982353H34.3755Z" fill="#606060"/>
</g>
<defs>
<clipPath id="clip0_1_893">
<rect width="114.303" height="36.2424" fill="white" transform="translate(0.666687 0.333313)"/>
</clipPath>
</defs>
</svg>
